<svg width="16" height="22" viewBox="0 0 16 22" fill="none" xmlns="http://www.w3.org/2000/svg">
<path fill-rule="evenodd" clip-rule="evenodd" d="M7.99987 6.25C6.4995 6.25 5.2832 7.46629 5.2832 8.96667C5.2832 10.467 6.4995 11.6833 7.99987 11.6833C9.50024 11.6833 10.7165 10.467 10.7165 8.96667C10.7165 7.46629 9.50024 6.25 7.99987 6.25ZM3.7832 8.96667C3.7832 6.63787 5.67107 4.75 7.99987 4.75C10.3287 4.75 12.2165 6.63787 12.2165 8.96667C12.2165 11.0395 10.7209 12.7629 8.75 13.1168V16C8.75 16.4142 8.41421 16.75 8 16.75C7.58579 16.75 7.25 16.4142 7.25 16V13.1169C5.27894 12.7631 3.7832 11.0395 3.7832 8.96667ZM3.5 17.75C3.08579 17.75 2.75 18.0858 2.75 18.5C2.75 18.9142 3.08579 19.25 3.5 19.25H12.5C12.9142 19.25 13.25 18.9142 13.25 18.5C13.25 18.0858 12.9142 17.75 12.5 17.75H3.5Z" fill="#A8A9AE"/>
</svg>
